<svg width="17" height="17" viewBox="0 0 17 17" fill="none" xmlns="http://www.w3.org/2000/svg">
<g clip-path="url(#clip0_24018_15920)">
<path d="M15.955 7.32513H15.1531V4.78575C15.134 4.48026 14.8858 4.23205 14.5803 4.21296H9.10062V0.699829H7.95504V4.21296H2.47533C2.16984 4.23205 1.92163 4.48026 1.90253 4.78575V7.32513H1.10062C0.776042 7.32513 0.527832 7.57334 0.527832 7.89792V11.6783C0.527832 12.0029 0.776042 12.2511 1.10062 12.2511H1.90253V15.7834C1.92163 16.0889 2.16984 16.3371 2.47533 16.3562H14.5803C14.8858 16.3371 15.134 16.0889 15.1531 15.7834V12.2511H15.955C16.2796 12.2511 16.5278 12.0029 16.5278 11.6783V7.89792C16.5278 7.57334 16.2796 7.32513 15.955 7.32513ZM4.27008 8.68074C4.27008 7.76427 5.01471 7.01964 5.93117 7.01964C6.84764 7.01964 7.59227 7.76427 7.59227 8.68074C7.59227 9.5972 6.84764 10.3418 5.93117 10.3418C5.01471 10.3418 4.27008 9.5972 4.27008 8.68074ZM11.0481 13.664H6.00755V12.5184H11.0481V13.664ZM12.7856 8.68074C12.7856 9.5972 12.041 10.3418 11.1245 10.3418C10.1889 10.3418 9.4443 9.5972 9.42521 8.68074C9.42521 7.74517 10.1698 7.00054 11.0863 6.98145C12.0028 6.96236 12.7665 7.72608 12.7856 8.64255C12.7856 8.66164 12.7856 8.66164 12.7856 8.68074Z" fill="#FF71CD"/>
</g>
<defs>
<clipPath id="clip0_24018_15920">
<rect width="16" height="16" fill="white" transform="translate(0.527832 0.528015)"/>
</clipPath>
</defs>
</svg>

